Coordinates
version=1
nRows=17
nColumns=33
inDegrees=yes

Units are S.I. units (second, meters, Newtons, ...)
Angles are in degrees.

endheader
time	ground_thorax_rot_x	ground_thorax_rot_y	ground_thorax_rot_z	ground_thorax_tx	ground_thorax_ty	ground_thorax_tz	clav_prot_r	clav_elev_r	scapula_abduction_r	scapula_elevation_r	scapula_upward_rot_r	scapula_winging_r	shoulder_elv_r	plane_of_elev_r	axial_rot_r	elbow_flexion_r	pro_sup_r	wrist_flex_r	wrist_dev_r	clav_prot_l	clav_elev_l	scapula_abduction_l	scapula_elevation_l	scapula_upward_rot_l	scapula_winging_l	shoulder_elv_l	plane_of_elev_l	axial_rot_l	elbow_flexion_l	pro_sup_l	wrist_flex_l	wrist_dev_l
      4.56000000	     38.88710243	      2.08309297	      7.15080838	   -153.61790634	    899.91512205	     -1.98487449	     13.38917876	     40.29007688	     41.74472666	     45.00000000	    -28.33212972	   2070.88180277	   -470.99344964	    147.29328391	   -117.79565583	     18.93104441	     80.99285351	     16.61541707	      2.85779480	     10.76349459	    -45.00000000	    -42.56509148	     45.00000000	    -28.86970811	    458.52922916	  -2611.46822802	    141.29204999	    151.08675562	    370.35882298	     21.88284440	     10.02424208	    -22.93172313
      4.57000000	     38.97460771	      2.13292208	      7.01594831	   -149.75767015	    897.83382659	     -1.84966195	     13.34903584	     40.48471058	     41.98899486	     45.00000000	    -27.56441370	   2070.87065445	   -471.24154464	    147.33569546	   -117.97390188	     18.98898235	     81.57668792	     16.49825969	      2.86376397	     10.60763539	    -45.00000000	    -42.75676300	     45.00000000	    -28.08946310	    458.25584073	  -2611.69408589	    141.27776898	    151.32505065	    370.23648167	     19.37557668	     10.48201364	    -22.81799384
      4.58000000	     39.08210746	      2.01427857	      6.89355790	   -145.80811344	    895.39797137	     -1.72740949	     13.56072172	     40.71158072	     42.24169837	     45.00000000	    -26.74560171	   2071.02466052	   -471.47622799	    147.40553645	   -118.13808817	     19.03036245	     82.07573726	     16.38950988	      2.88022513	     10.32922402	    -45.00000000	    -42.84295590	     45.00000000	    -27.08556701	    458.00862063	  -2612.04635283	    141.29545955	    151.36836831	    370.01011659	     16.80912443	     11.03651775	    -22.66097852
      4.59000000	     39.17532353	      2.13117256	      6.85033964	   -141.78046042	    892.61702951	     -1.61691894	     13.55674987	     40.86270681	     42.43548529	     45.00000000	    -26.36287399	   2071.17828907	   -471.69755313	    147.42996813	   -118.66116906	     19.04106539	     82.40513562	     16.36764706	      2.93213003	     10.21420579	    -45.00000000	    -43.01485255	     45.00000000	    -26.50530559	    457.65105082	  -2612.36384126	    141.29078923	    151.58800835	    369.84040392	     14.51335880	     11.43334216	    -22.46503538
      4.60000000	     39.28837253	      2.11495759	      6.83428484	   -137.68811095	    889.50547789	     -1.51716666	     13.73388362	     41.04511418	     42.64812264	     45.00000000	    -25.84315901	   2071.39713457	   -471.98032118	    147.46526444	   -119.10916201	     19.03637328	     82.55745087	     16.34162978	      2.99191133	     10.01044764	    -45.00000000	    -43.07404620	     45.00000000	    -25.83396379	    457.34520628	  -2612.77277195	    141.29814641	    151.81100423	    369.67394059	     12.36830745	     11.88366023	    -22.26072724
      4.61000000	     39.40685679	      2.19317098	      6.82603815	   -133.54392725	    886.08571768	     -1.42800131	     13.74453559	     41.23432072	     42.85197688	     45.00000000	    -25.44865326	   2071.50814021	   -472.35298793	    147.42470857	   -119.48509340	     18.96444232	     82.52561406	     16.35477040	      3.08215315	      9.87044481	    -45.00000000	    -43.24286442	     45.00000000	    -25.33406260	    456.96614912	  -2613.18656601	    141.32864100	    152.03799856	    369.55257400	     10.58342770	     12.18781642	    -22.05022715
      4.62000000	     39.57712801	      2.39812933	      7.04881288	   -129.35575423	    882.38255022	     -1.34961078	     12.42429313	     40.97375731	     42.76589139	     45.00000000	    -25.25172765	   2071.79105137	   -472.56492010	    147.18684827	   -119.93853784	     18.85625590	     82.38779150	     16.52189260	      3.28665271	     10.21425952	    -45.00000000	    -43.10837401	     45.00000000	    -25.97207892	    456.69648101	  -2613.59149358	    140.80073871	    151.97111805	    369.19939643	      9.38423202	     11.87932279	    -21.76437447
      4.63000000	     39.71460164	      2.55171781	      7.18633533	   -125.13592022	    878.42676078	     -1.28254584	     12.51679867	     41.08015017	     42.99995664	     45.00000000	    -24.89209268	   2072.12855397	   -472.84310419	    147.44496711	   -120.41324098	     18.78155021	     82.04569254	     16.52397151	      3.38931603	     10.05673635	    -45.00000000	    -43.06376763	     45.00000000	    -25.74572711	    456.28606939	  -2614.07302811	    140.77636688	    152.24508971	    369.05023761	      8.26165047	     12.12195074	    -21.58090876
      4.64000000	     39.81226271	      2.23564402	      6.82513387	   -120.89359823	    874.25402822	     -1.22661929	     14.40812225	     41.72010318	     43.39669638	     45.00000000	    -24.62082835	   2072.45973058	   -473.26503824	    147.51156711	   -121.29079805	     18.69907035	     81.23015220	     16.57685732	      3.43642484	      9.31534747	    -45.00000000	    -43.44571822	     45.00000000	    -23.97259337	    455.83830551	  -2614.65143670	    141.30501938	    152.94535029	    369.17830512	      6.92952004	     13.11852166	    -21.43113656
      4.65000000	     39.95660595	      2.34545757	      6.88967767	   -116.63220315	    869.90160221	     -1.17921843	     14.56573665	     41.85800986	     43.53410362	     45.00000000	    -24.44422204	   2072.83088976	   -473.55707188	    147.60392909	   -121.85903897	     18.50846808	     80.12851433	     16.71314119	      3.60272845	      9.17738788	    -45.00000000	    -43.52503125	     45.00000000	    -23.70726528	    455.39923664	  -2615.18049246	    141.30401437	    153.13688900	    369.03591866	      5.98632708	     13.34766140	    -21.20160615
      4.66000000	     40.08876562	      2.49998556	      7.01756287	   -112.36129801	    865.40495213	     -1.13384827	     14.74837986	     41.99822241	     43.63258653	     45.00000000	    -24.47056350	   2073.14490771	   -473.92407307	    147.54235427	   -122.47772594	     18.25356213	     78.76812359	     16.85745416	      3.79681253	      9.06625914	    -45.00000000	    -43.53465435	     45.00000000	    -23.66483759	    454.89715272	  -2615.68383844	    141.32800607	    153.50558084	    368.97825410	      5.27262518	     13.50369193	    -21.00377211
      4.67000000	     40.21802760	      2.58364276	      7.06817379	   -108.09469431	    860.80241452	     -1.08059627	     15.07695386	     42.14175663	     43.81937473	     45.00000000	    -24.45484057	   2073.50411913	   -474.29761221	    147.60723063	   -123.21691941	     17.94987896	     76.99850623	     17.03402837	      4.02194574	      8.92290976	    -45.00000000	    -43.54472819	     45.00000000	    -23.49538349	    454.46550596	  -2616.23457009	    141.27150205	    153.98080385	    368.92381146	      4.75124347	     13.70776331	    -20.81302911
      4.68000000	     40.33241793	      2.47333185	      7.08967722	   -103.85001106	    856.13133796	     -1.00706873	     15.29679829	     42.26374518	     43.92941253	     45.00000000	    -24.25011468	   2074.08927098	   -474.53342941	    147.72651184	   -123.96685140	     17.69031991	     74.60496623	     17.28446524	      4.28837342	      8.77548070	    -45.00000000	    -43.61080125	     45.00000000	    -23.38427553	    454.02102487	  -2616.80103978	    141.21663778	    154.39930778	    368.65915872	      4.48959384	     13.88720825	    -20.59174803
      4.69000000	     40.41281550	      3.57747309	      8.21979422	    -99.64687742	    851.42942551	     -0.89960061	     13.65878195	     41.71869041	     43.50296397	     45.00000000	    -25.56764422	   2074.58528228	   -474.56944928	    147.37362939	   -124.40466394	     17.30894191	     72.92770725	     17.42659108	      4.62803276	      9.11427523	    -45.00000000	    -42.91645656	     45.00000000	    -26.00076777	    453.39210734	  -2616.97233583	    140.59390299	    153.86833224	    368.51618493	      4.54576940	     13.21229476	    -20.43556627
      4.70000000	     40.51131495	      2.57857305	      7.28251006	    -95.51150350	    846.72568924	     -0.74445127	     15.89668808	     42.51052919	     44.12935219	     45.00000000	    -24.52424101	   2074.99195952	   -475.19215517	    147.72312071	   -125.56710505	     16.87225284	     69.35493234	     17.75113566	      4.94478910	      8.53068494	    -45.00000000	    -43.66425287	     45.00000000	    -23.54254301	    452.87610457	  -2617.79666247	    141.21220630	    155.60634186	    368.48276631	      4.60934465	     14.03014632	    -20.25415955
      4.71000000	     40.56254263	      2.67133930	      7.53331543	    -91.46069612	    842.05366103	     -0.53155530	     16.14299111	     42.55008637	     44.17134812	     45.00000000	    -24.59793244	   2075.53136274	   -475.52323168	    147.82858662	   -126.13091545	     16.34995520	     65.43903022	     17.95490100	      5.36408325	      8.47919142	    -45.00000000	    -43.59437010	     45.00000000	    -23.79667097	    452.35235383	  -2618.27588023	    141.20878392	    155.77851288	    368.36946880	      5.07456200	     13.88391355	    -20.10793310
      4.72000000	     40.61564879	      2.81845325	      7.80112927	    -87.52039484	    837.44741467	     -0.25357552	     16.37654334	     42.60523239	     44.02905411	     45.00000000	    -25.04938660	   2075.93654392	   -475.78675459	    147.48215261	   -126.38144174	     15.79786029	     61.42473034	     18.19469548	      5.85522682	      8.49091384	    -45.00000000	    -43.50433291	     45.00000000	    -24.26907567	    451.78638753	  -2618.67902203	    141.12361176	    155.95946533	    368.28640927	      5.62831586	     13.76074894	    -19.96735944
